<svg width="50" height="49" viewBox="0 0 50 49" fill="none" xmlns="http://www.w3.org/2000/svg">
<path d="M25 49C38.8071 49 50 38.031 50 24.5C50 10.969 38.8071 0 25 0C11.1929 0 0 10.969 0 24.5C0 38.031 11.1929 49 25 49Z" fill="#FFCC4D"/>
<path d="M25 28.5833C19.9681 28.5833 16.6292 28.009 12.5 27.2222C11.557 27.0439 9.72223 27.2222 9.72223 29.9445C9.72223 35.3889 16.1042 42.1945 25 42.1945C33.8945 42.1945 40.2778 35.3889 40.2778 29.9445C40.2778 27.2222 38.4431 27.0426 37.5 27.2222C33.3708 28.009 30.032 28.5833 25 28.5833Z" fill="#664500"/>
<path d="M12.5 29.9445C12.5 29.9445 16.6667 31.3056 25 31.3056C33.3333 31.3056 37.5 29.9445 37.5 29.9445C37.5 29.9445 34.7222 35.3889 25 35.3889C15.2778 35.3889 12.5 29.9445 12.5 29.9445Z" fill="white"/>
<path d="M16.6667 23.1389C18.5843 23.1389 20.1389 21.006 20.1389 18.375C20.1389 15.744 18.5843 13.6111 16.6667 13.6111C14.749 13.6111 13.1944 15.744 13.1944 18.375C13.1944 21.006 14.749 23.1389 16.6667 23.1389Z" fill="#664500"/>
<path d="M33.3333 23.1389C35.251 23.1389 36.8056 21.006 36.8056 18.375C36.8056 15.744 35.251 13.6111 33.3333 13.6111C31.4157 13.6111 29.8611 15.744 29.8611 18.375C29.8611 21.006 31.4157 23.1389 33.3333 23.1389Z" fill="#664500"/>
</svg>
